<svg xmlns="http://www.w3.org/2000/svg" width="16" height="16" fill="none" viewBox="0 0 16 16">
  <path fill="#7780A1" d="M12.165 5.373a1.625 1.625 0 1 1-3.25 0 1.625 1.625 0 0 1 3.25 0Zm-1.084 0a.542.542 0 1 0-1.083 0 .542.542 0 0 0 1.083 0ZM.25 3.748A3.25 3.25 0 0 1 3.5.5h8.665a3.25 3.25 0 0 1 3.249 3.25v8.665a3.25 3.25 0 0 1-3.25 3.249H3.5a3.25 3.25 0 0 1-3.249-3.25V3.749ZM3.5 1.582c-1.197 0-2.167.97-2.167 2.166v8.666c0 .403.11.781.303 1.104L6.693 8.55a1.625 1.625 0 0 1 2.278 0l5.057 4.97c.192-.324.303-.702.303-1.105V3.748c0-1.196-.97-2.166-2.166-2.166H3.498Zm0 12.998h8.665c.4 0 .774-.108 1.095-.297L8.212 9.322a.542.542 0 0 0-.76 0l-5.048 4.96c.321.19.696.298 1.095.298Z"/>
</svg>
