<svg xmlns="http://www.w3.org/2000/svg" width="17" height="17" fill="none" viewBox="0 0 17 17">
  <path fill="#7780A1" d="M1.706 16.831a1.625 1.625 0 0 1-1.618-1.468l-.007-.156V3.292c0-.844.644-1.538 1.468-1.617l.157-.007H6.58c.844 0 1.538.644 1.617 1.468l.007.156v.276l2.371-2.458a1.625 1.625 0 0 1 2.174-.15l.126.11 2.987 2.951c.598.591.64 1.533.12 2.179l-.112.125-2.503 2.382.253.001c.845 0 1.539.644 1.617 1.468l.008.157v4.874c0 .844-.644 1.538-1.468 1.617l-.157.007H1.706Zm5.415-7.04H1.164v5.416c0 .232.147.43.353.507l.091.026.098.008H7.12V9.791Zm6.5 0H8.203v5.957h5.416a.542.542 0 0 0 .533-.444l.009-.097v-4.874a.542.542 0 0 0-.445-.533l-.097-.009ZM8.203 6.77v1.938h1.94L8.203 6.77ZM6.58 2.75H1.706a.542.542 0 0 0-.533.444l-.009.097v5.416h5.957V3.292a.542.542 0 0 0-.352-.507l-.092-.026-.097-.008Zm5.548-.896a.545.545 0 0 0-.7-.057l-.073.064-2.834 2.94a.542.542 0 0 0-.061.674l.068.084 2.833 2.833a.542.542 0 0 0 .672.076l.085-.066 2.987-2.845a.542.542 0 0 0 .058-.692l-.063-.074-2.972-2.937Z"/>
</svg>
