<svg xmlns="http://www.w3.org/2000/svg" width="32" height="32" fill="none" viewBox="0 0 32 32">
  <path fill="#060714" d="M16 12.5a3.754 3.754 0 0 0 3.75-3.75A3.754 3.754 0 0 0 16 5a3.754 3.754 0 0 0-3.75 3.75A3.754 3.754 0 0 0 16 12.5Zm0-5a1.25 1.25 0 1 1 0 2.5 1.25 1.25 0 0 1 0-2.5ZM6.25 32h5a6.257 6.257 0 0 0 6.25-6.25v-5a6.257 6.257 0 0 0-6.25-6.25h-5A6.257 6.257 0 0 0 0 20.75v5A6.257 6.257 0 0 0 6.25 32ZM2.5 20.75A3.754 3.754 0 0 1 6.25 17h5A3.754 3.754 0 0 1 15 20.75v5a3.754 3.754 0 0 1-3.75 3.75h-5a3.754 3.754 0 0 1-3.75-3.75v-5Z"/>
  <path fill="#060714" d="M23.5 12.5c.69 0 1.25-.56 1.25-1.25v-5A6.257 6.257 0 0 0 18.5 0h-5a6.257 6.257 0 0 0-6.25 6.25v5a1.25 1.25 0 1 0 2.5 0v-5A3.754 3.754 0 0 1 13.5 2.5h5a3.754 3.754 0 0 1 3.75 3.75v5c0 .69.56 1.25 1.25 1.25Zm2.25 2h-5c-.53 0-1.055.066-1.564.198a1.25 1.25 0 1 0 .624 2.42 3.77 3.77 0 0 1 .94-.118h5a3.754 3.754 0 0 1 3.75 3.75v5a3.754 3.754 0 0 1-3.75 3.75h-5a3.77 3.77 0 0 1-.94-.119 1.25 1.25 0 0 0-.624 2.421A6.267 6.267 0 0 0 20.75 32h5A6.257 6.257 0 0 0 32 25.75v-5a6.257 6.257 0 0 0-6.25-6.25Z"/>
  <path fill="#060714" d="M19.866 26.634a1.25 1.25 0 0 0 1.768 0l1.616-1.616 1.616 1.616a1.25 1.25 0 0 0 1.768-1.768l-1.616-1.616 1.616-1.616a1.25 1.25 0 1 0-1.768-1.768l-1.616 1.616-1.616-1.616a1.25 1.25 0 0 0-1.768 1.768l1.616 1.616-1.616 1.616a1.25 1.25 0 0 0 0 1.768ZM7.5 27H10a2.503 2.503 0 0 0 2.237-3.617l-1.25-2.5A2.487 2.487 0 0 0 8.75 19.5c-.953 0-1.81.53-2.237 1.383l-1.25 2.5A2.503 2.503 0 0 0 7.5 27Zm1.25-5L10 24.5l-2.5-.002 1.25-2.497Z"/>
</svg>
