<svg xmlns="http://www.w3.org/2000/svg" width="85" height="45" fill="none" viewBox="0 0 85 45">
  <path fill="#BBC0D0" d="M20.634 23.505h5.729L34.803 1h-5.32l-3.79 10.093L26.346 1h-5.66l-8.44 22.505h5.32l3.72-9.956-.652 9.956ZM35.493 1l-8.44 22.505h5.32L40.813 1h-5.32Z"/>
  <path fill="#BBC0D0" fill-rule="evenodd" d="M11.632 15.748C4.2 24.478-2.813 36.093 3.38 41.442c5.95 5.137 13.372 2.167 18.483.122L22 41.51c5.115-2.046 61.651-26.598 61.651-26.598.546-.272.444-.614-.239-.443-.115.029-11.07 2.996-23.705 6.42l.628-1.748h-6.206l2.039-5.456h5.114l1.574-4.194h-5.114l1.753-4.74h5.387L66.31 1H50.078l-5.573 6.752L47.079 1h-5.388L33.32 23.505h5.32l3.574-9.411.245 9.411 7.652-.016-28.247 7.654c-7.776 2.183-16.641-2.574-10.23-15.395Zm36.103 6.257-.341-11.73 8.043-8.83-7.702 20.56Z" clip-rule="evenodd"/>
</svg>
