<svg xmlns="http://www.w3.org/2000/svg" width="85" height="45" fill="none" viewBox="0 0 85 45">
  <g clip-path="url(#a)">
    <path fill="#BBC0D0" fill-rule="evenodd" d="M72.042 18.086c-.558-3.209-4.698-3.52-7.39-3.023-2.691.497-6.002 1.925-9.376 3.498-1.295.604-2.793 1.4-4.238 2.193-1.13-.2-2.231-.35-3.174-.35-2.256 0-4.16.807-5.175 1.22-1.014.415-1.325.766-1.242.974.083.207.663.103 1.615-.228s1.76-.684 3.912-.91c.733-.079 1.603-.014 2.564.127-1.72.96-3.215 1.812-3.97 2.17-1.573.745-3.766 2.07-7.74 2.215-3.976.144-5.155-1.574-6.459-3.23-1.304-1.656-2.567-4.884-3.83-7.223-1.262-2.34-4.056-3.788-4.056-3.788 3.126-.724 5.899-2.732 6.23-5.816.331-3.084-1.655-5.423-5.36-5.837-3.706-.414-6.893.89-9.004 2.36-2.112 1.47-3.395 4.119-2.981 5.796.414 1.676 1.635 1.966 2.566 1.697.932-.27 1.325-1.304 1.201-1.697-.124-.394-.6-.932-1.035-.766-.435.165-.641.062-.641.062-1.077-1.139-.249-3.478 2.07-4.802 2.088-1.194 3.926-1.358 5.964-1.063-.781.375-1.53.813-2.24 1.31-1.636 1.138-2.692 3.373-2.96 6.189-.27 2.815-.167 4.119-.353 7.886-.186 3.768-.372 6.127-1.056 6.934-.683.808-2.028 1.449-2.69 1.863-.663.415-.56 1.055.414.87.972-.186 2.112-.87 3.188-1.387s2.173-.807 3.974-.828c1.801-.021 1.739.04 1.842-.29.104-.332-.124-.394-.724-.89-.6-.498-.807-.788-.766-2.03.03-.879.017-5.603.007-8.916 1.33.345 1.816 2.105 2.207 3.535.414 1.51 1.014 3.954 1.987 5.733 1.755 3.212 3.56 5.507 7.14 6.624 3.582 1.118 6.687 0 9.73-1.158 2.787-1.062 6.422-3.39 9.273-5.174 1.405.295 2.945.674 4.575 1.033 3.664.807 6.852.994 9.108.766 2.255-.227 7.452-2.441 6.893-5.65Zm-50.918-7.231-.002-1.484c0-1.78-.021-5.03 1.2-6.19.829-.786 1.221-1.045 1.69-1.178 1.564.576 1.833 1.755 1.976 3.167.166 1.636-.6 3.106-2.008 4.389-.983.896-2.206 1.196-2.855 1.296ZM63.04 22.246c-2.608.228-5.052-.249-7.411-.621-.852-.135-1.807-.331-2.784-.527 3.004-1.708 7.705-3.409 10.257-3.737 2.732-.352 3.912.476 3.87 1.925-.04 1.449-1.324 2.732-3.932 2.96ZM35.58 10.847c.22.098.116.382.116.88v6.317c0 .348.133.547.398.381.265-.166.83-.613.995-.547.166.066.547.233.033 1.061-.514.83-1.459 1.957-2.188 2.04-.73.083-1.79 0-2.238-.547-.448-.548-.63-.996-.63-1.592V13.4c0-.448-.1-.464-.366-.464-.265 0-.712-.017-.762-.282-.05-.265.049-.382.497-.547.448-.166 2.968-.962 3.4-1.095.43-.132.596-.232.745-.166Zm-2.155-1.906c.282-.78.348-1.377.298-1.758-.05-.381-.364-.547-.348-.696.016-.15.58-.332 1.227-.548.647-.215 1.26-.497 1.675-.597.414-.1.663.398.116 1.858-.547 1.459-1.592 2.42-2.155 2.752-.564.332-.942.47-1.112.216-.1-.15.017-.448.299-1.227Zm10.18 8.87c-.712.797-1.508 1.61-2.752 1.344-1.243-.265-1.873-1.277-1.873-2.388v-5.156c0-.517.044-.575-.2-.66-.577.042-.955-.01-.928-.203.066-.497.497-.464 1.028-.928a11.67 11.67 0 0 0 1.94-2.256c.613-.944.862-2.221 1.045-2.752.182-.53.315-.763.597-.663.282.1.232.282.232.829v3.63c.057.092.132.147.233.134.38-.05.746-.216.945-.2.198.017.265.3.265.548 0 .226-.046.48-1.443.971v5.91c0 .465-.183.813.282.614.464-.2.896-.613 1.194-.497.298.115.149.927-.564 1.724Zm7.236-2.08c-.713.796-1.509 1.608-2.753 1.343-1.243-.266-1.873-1.278-1.873-2.388V9.53c0-.518.044-.576-.2-.66-.577.042-.954-.01-.928-.203.067-.497.497-.465 1.028-.929a11.68 11.68 0 0 0 1.94-2.255c.614-.945.862-2.221 1.045-2.752.183-.53.315-.763.597-.663.282.1.232.282.232.83v3.629c.058.092.132.147.233.134.38-.05.746-.215.945-.199.198.017.265.298.265.547 0 .226-.046.48-1.443.972v5.91c0 .464-.182.813.282.614.464-.2.896-.614 1.194-.498.298.115.149.928-.564 1.723Zm9.41-11.02c-.753-.7-2.154-1.47-4.051-.462-1.898 1.009-3.094 2.273-4 5.025-.906 2.752 1.863 5.042 2.513 5.35.649.307 1.657.888 3.195-.154 1.539-1.043 2.103-2.12 2.274-2.513.17-.393-.017-.957-.599-.563-.58.393-1.384 1.367-2.615.991-.921-.282-1.296-.899-1.534-1.45.811-.523 3.339-2.155 4.252-2.754 1.094-.718 1.197-.7 1.367-1.18.171-.479-.05-1.59-.803-2.29Zm-2.48 3.264c-.623.689-1.42 1.288-2.74 1.922-.206-.668-.309-1.662.45-2.998.992-1.744 2.018-2.274 2.445-1.641.427.633.512 1.982-.154 2.717Zm4.803-3.47c-.216-.107-.341-.068-.615-.016-.274.051-.462-.154-.308-.36.155-.204.667-.58 1.145-1.008.479-.427.957-.82 1.504-.769.548.052 1.232.103 1.864 1.214 0 0 .922-1.282 1.504-1.607 0 0 .854.872 1.4 1.145.548.273.873.462 1.386.051.512-.41.615-.478.768-.342.154.137-.034.838-.837 1.607-.803.77-1.674 1.453-2.444 1.23-.77-.221-1.658-.87-1.658-.87v4.972c0 .41.12.428.513.24s.803-.564 1.025-.36c.222.206.188.804-.717 1.727-.906.923-1.043 1.248-2.53 1.248-1.487 0-1.965-1.624-1.965-2.068V4.933c0-.342.103-.359-.035-.427ZM20.2 33.765l1.438-2.851s-1.918-1.186-4.315-1.186c-2.396 0-3.986 1.111-4.667 3.154-.681 2.044.227 4.238 1.236 4.718 1.01.48 2.826 1.11 3.633 1.463.807.353 1.237 1.565.58 2.17-.655.605-2.144 1.135-4.54-.934L12 43.198s2.094 1.691 4.642 1.691c2.548 0 4.692-1.11 5.399-3.456.706-2.346-.151-4.617-2.346-5.374-2.195-.756-3.659-.832-3.482-2.27.177-1.438 2.725-1.26 3.986-.025Zm13.396-1.199c-.783-2.068-3.356-2.446-4.011-2.446h-6.333V44.5h3.683v-4.718h2.574c.933 0 1.917-.075 3.33-1.236 1.413-1.16 1.539-3.91.757-5.98Zm-4.97 4.24h-1.69v-3.76h1.26c1.136 0 1.969.454 1.969 1.943 0 1.488-.833 1.816-1.54 1.816Zm13.9-7.187c-4.351 0-7.879 3.443-7.879 7.691 0 4.248 3.528 7.691 7.88 7.691 4.35 0 7.878-3.443 7.878-7.691 0-4.248-3.528-7.691-7.879-7.691Zm0 11.81c-2.237 0-4.05-1.845-4.05-4.119s1.813-4.119 4.05-4.119 4.05 1.845 4.05 4.119-1.813 4.119-4.05 4.119ZM55.053 39.1l3.422 5.386h4.602l-4.4-5.81s.615 0 1.778-.719c1.161-.718 1.81-3.144 1.093-5.161-.718-2.017-3.009-2.666-4.307-2.666h-5.948v14.356h3.76V39.1Zm2.052-5.928c.615.205.99 1.264.854 2.187-.136.923-1.572 1.334-2.05 1.334h-.856v-3.692c.774-.004 1.486-.018 2.052.17Zm15.039-3.042H62.3v3.042h3.076v11.314h3.691V33.173h3.077V30.13Z" clip-rule="evenodd"/>
  </g>
  <defs>
    <clipPath id="a">
      <path fill="#fff" d="M0 0h85v45H0z"/>
    </clipPath>
  </defs>
</svg>
