<svg xmlns="http://www.w3.org/2000/svg" width="32" height="32" fill="none" viewBox="0 0 32 32">
  <path fill="#060714" d="M15 25.75c0-.69-.56-1.25-1.25-1.25h-7.5a1.25 1.25 0 1 0 0 2.5h7.5c.69 0 1.25-.56 1.25-1.25ZM25.75 7.5a1.25 1.25 0 1 0 0-2.5 1.25 1.25 0 0 0 0 2.5Zm-22 10h5a3.754 3.754 0 0 0 3.75-3.75v-10A3.754 3.754 0 0 0 8.75 0h-5A3.754 3.754 0 0 0 0 3.75v10a3.754 3.754 0 0 0 3.75 3.75ZM2.5 3.75c0-.69.56-1.25 1.25-1.25h5c.69 0 1.25.56 1.25 1.25v10c0 .69-.56 1.25-1.25 1.25h-5c-.69 0-1.25-.56-1.25-1.25v-10Z"/>
  <path fill="#060714" d="M28.25 0h-10a3.754 3.754 0 0 0-3.75 3.75v10a3.754 3.754 0 0 0 3.75 3.75h10A3.754 3.754 0 0 0 32 13.75v-10A3.754 3.754 0 0 0 28.25 0Zm1.25 13.75c0 .69-.56 1.25-1.25 1.25h-10c-.69 0-1.25-.56-1.25-1.25v-1.727l3.191-1.596c.35-.175.768-.175 1.118 0l3.882 1.941a1.25 1.25 0 0 0 1.118-2.236l-3.882-1.941a3.768 3.768 0 0 0-3.354 0L17 9.227V3.75c0-.69.56-1.25 1.25-1.25h10c.69 0 1.25.56 1.25 1.25v10ZM3.75 32h12.5A3.754 3.754 0 0 0 20 28.25v-5a3.754 3.754 0 0 0-3.75-3.75H3.75A3.754 3.754 0 0 0 0 23.25v5A3.754 3.754 0 0 0 3.75 32ZM2.5 23.25c0-.69.56-1.25 1.25-1.25h12.5c.69 0 1.25.56 1.25 1.25v5c0 .69-.56 1.25-1.25 1.25H3.75c-.69 0-1.25-.56-1.25-1.25v-5Zm25.75-3.75h-2.5A3.754 3.754 0 0 0 22 23.25v5A3.754 3.754 0 0 0 25.75 32h2.5A3.754 3.754 0 0 0 32 28.25v-5a3.754 3.754 0 0 0-3.75-3.75Zm1.25 8.75c0 .69-.56 1.25-1.25 1.25h-2.5c-.69 0-1.25-.56-1.25-1.25v-5c0-.69.56-1.25 1.25-1.25h2.5c.69 0 1.25.56 1.25 1.25v5ZM6.25 12.5c.69 0 1.25-.56 1.25-1.25v-5a1.25 1.25 0 1 0-2.5 0v5c0 .69.56 1.25 1.25 1.25Z"/>
</svg>
