<svg xmlns="http://www.w3.org/2000/svg" width="32" height="32" fill="none" viewBox="0 0 32 32">
  <path fill="#060714" d="M30.748 8.816c.69 0 1.25-.56 1.25-1.25V6.254A6.261 6.261 0 0 0 25.744 0S6.152.003 6.104.009A6.38 6.38 0 0 0 1.73 1.97a6.16 6.16 0 0 0-1.723 4.5C.004 6.502.002 24.496.002 24.496.002 28.634 3.37 32 7.506 32h18.238a6.261 6.261 0 0 0 6.254-6.254v-9.489a6.26 6.26 0 0 0-6.254-6.254H6.25a3.742 3.742 0 0 1-3.745-3.57 3.684 3.684 0 0 1 1.031-2.737 3.867 3.867 0 0 1 2.785-1.192L25.744 2.5a3.758 3.758 0 0 1 3.754 3.754v1.312c0 .69.56 1.25 1.25 1.25ZM6.25 12.503h19.493a3.758 3.758 0 0 1 3.754 3.754v9.49a3.759 3.759 0 0 1-3.754 3.753H7.506a5.01 5.01 0 0 1-5.004-5.004V11.258a6.232 6.232 0 0 0 3.75 1.245Zm20.747 8.499c0 .862-.7 1.562-1.562 1.562-2.072-.082-2.072-3.043 0-3.125.863 0 1.562.7 1.562 1.563Zm0-14.748c0-.69-.56-1.25-1.25-1.25H6.252c-1.658.066-1.657 2.434 0 2.5H25.75c.69 0 1.25-.56 1.25-1.25Z"/>
</svg>
