<svg xmlns="http://www.w3.org/2000/svg" width="32" height="32" fill="none" viewBox="0 0 32 32">
  <path fill="#060714" d="m15.597 18.317 4.82-4.928a1.25 1.25 0 0 1 1.785 1.747l-4.847 4.955a3.808 3.808 0 0 1-2.678 1.095c-.99 0-1.978-.38-2.724-1.14a3.795 3.795 0 0 1-1.096-2.71 3.795 3.795 0 0 1 1.14-2.692l4.936-4.89a1.249 1.249 0 0 1 1.759 1.774l-4.94 4.893a1.317 1.317 0 0 0-.398.935c-.02.71.6 1.342 1.311 1.334.35 0 .68-.13.932-.373Zm.49 13.68c-.029 0 .027 0 0 0ZM31.83 13.776a1.25 1.25 0 0 0-2.473.349 13.543 13.543 0 0 1-.034 4.004 1.306 1.306 0 0 1-.625.93c-.347.21-.77.252-1.16.118a6.582 6.582 0 0 0-2.373-.352c-3.441.12-6.23 2.909-6.35 6.35-.028.813.09 1.612.352 2.374.134.39.091.813-.118 1.16-.205.34-.535.562-.93.625-.673.106-1.361.161-2.047.165-7.241.159-13.72-6.227-13.559-13.488-.15-7.25 6.238-13.638 13.488-13.488.747 0 1.497.062 2.229.185a1.249 1.249 0 1 0 .413-2.463C9.089-1.496-.13 6.297.016 16.01c-.19 8.61 7.482 16.175 16.07 15.986.812-.005 1.627-.07 2.423-.196 2.322-.32 3.826-2.868 3.021-5.064-.915-2.518 1.037-5.37 3.723-5.416a4.084 4.084 0 0 1 1.475.218 3.864 3.864 0 0 0 3.259-.34 3.816 3.816 0 0 0 1.805-2.68 16.136 16.136 0 0 0 .039-4.743Zm-1.36-5.201c.921-1.614 1.516-3.731 1.516-5.392 0-1.13-.614-2.223-1.564-2.783-.823-.485-1.765-.503-2.585-.049-.904.502-1.75.788-2.57 1.064-1.373.465-2.794.945-3.975 2.365a5.015 5.015 0 0 0-1.147 3.709c.197 2.557 2.525 4.63 5.088 4.588 2.09 0 3.95-1.244 5.238-3.502Zm-1.316-6.023c.162.096.335.35.335.63 0 1.032-.368 2.717-1.188 4.156-.894 1.686-2.84 3.099-4.74 1.65a2.544 2.544 0 0 1-.93-1.737 2.534 2.534 0 0 1 .58-1.874c.73-.877 1.622-1.178 2.856-1.595.88-.298 1.879-.635 2.98-1.246.014-.007.023-.012.036-.012.015 0 .035.007.071.028Zm-11.842 4.03c0 .862-.699 1.561-1.561 1.561-2.069-.077-2.068-3.046 0-3.122a1.56 1.56 0 0 1 1.561 1.56Zm-5.62 2.435c0 .862-.699 1.561-1.561 1.561-2.069-.076-2.068-3.046 0-3.122.862 0 1.561.699 1.561 1.561Zm-3.31 4.933a1.56 1.56 0 0 1-1.56 1.561c-2.07-.076-2.069-3.046 0-3.122.862 0 1.56.7 1.56 1.561Zm-.686 4.309c.862 0 1.56.699 1.56 1.561-.076 2.069-3.045 2.068-3.121 0a1.56 1.56 0 0 1 1.56-1.561Z"/>
</svg>
