<svg xmlns="http://www.w3.org/2000/svg" width="32" height="32" fill="none" viewBox="0 0 32 32">
  <path fill="#060714" d="M16 32a15.895 15.895 0 0 1-11.314-4.686A15.895 15.895 0 0 1 0 16c0-4.274 1.664-8.292 4.686-11.314A15.896 15.896 0 0 1 16 0c4.274 0 8.292 1.664 11.314 4.686A15.895 15.895 0 0 1 32 16c0 4.274-1.664 8.292-4.686 11.314A15.895 15.895 0 0 1 16 32Zm0-29.5C8.556 2.5 2.5 8.556 2.5 16S8.556 29.5 16 29.5 29.5 23.444 29.5 16 23.444 2.5 16 2.5Zm-.063 14.688c-3.308 0-6-2.692-6-6 0-3.309 2.692-6 6-6 3.309 0 6 2.691 6 6 0 3.308-2.691 6-6 6Zm0-9.5c-1.93 0-3.5 1.57-3.5 3.5s1.57 3.5 3.5 3.5 3.5-1.57 3.5-3.5-1.57-3.5-3.5-3.5Zm7.92 16.779a1.25 1.25 0 0 0 .175-1.76 9.23 9.23 0 0 0-7.165-3.395h-1.484a9.23 9.23 0 0 0-7.165 3.396 1.25 1.25 0 0 0 1.934 1.584 6.739 6.739 0 0 1 5.231-2.48h1.484c2.033 0 3.94.904 5.23 2.48a1.247 1.247 0 0 0 1.76.175Z"/>
</svg>
