<svg xmlns="http://www.w3.org/2000/svg" width="32" height="32" fill="none" viewBox="0 0 32 32">
  <path fill="#060714" d="M24.499 27H7.5C3.366 27 .002 23.638.002 19.504V9.253c0-4.135 3.364-7.499 7.5-7.499h5.874c1.658.066 1.657 2.434 0 2.5H7.5a5.005 5.005 0 0 0-4.999 5v10.249A5.004 5.004 0 0 0 7.5 24.5h16.999c2.757 0 5-2.243 5-5V9.254c0-.958-.24-1.856-.693-2.599a1.25 1.25 0 1 1 2.134-1.301c.692 1.134 1.058 2.483 1.058 3.9v10.249c0 4.135-3.364 7.499-7.499 7.499Zm-1.25 3.75c0-.69-.56-1.25-1.25-1.25H10.001c-1.658.066-1.657 2.435 0 2.5h11.998c.69 0 1.25-.56 1.25-1.25Zm-2.308-18.925s4.711-5.39 4.718-5.4a3.897 3.897 0 0 0 .885-2.868A3.897 3.897 0 0 0 25.14.902a3.897 3.897 0 0 0-2.87-.884 3.893 3.893 0 0 0-2.65 1.398l-4.58 5.473a1.25 1.25 0 1 0 1.918 1.604l4.583-5.478c.243-.293.585-.473.963-.509.38-.035.749.079 1.041.321.595.473.688 1.414.197 1.993l-4.684 5.36c-.708.803-.117 2.08.94 2.073.348 0 .695-.145.942-.428Zm4.183 10.17h-5.687c-1.658-.066-1.657-2.434 0-2.5h5.687c1.658.066 1.657 2.435 0 2.5Zm-11.004-1.51c3.424-1.852 4.614-5.621 2.347-8.5a5.029 5.029 0 0 0-3.434-1.834c-3.367-.293-5.31 2.383-6.078 5.126-.277.82-.563 1.667-1.065 2.572-1.105 1.956.732 4.186 2.834 4.152 1.662 0 3.78-.595 5.396-1.517Zm-1.325-7.846a2.55 2.55 0 0 1 1.739.93 2.61 2.61 0 0 1 .591 1.674c-.087 2.925-4.417 4.234-6.401 4.259-.282 0-.535-.173-.63-.335-.04-.066-.032-.079-.017-.106.61-1.103.948-2.102 1.246-2.983.418-1.235.72-2.127 1.597-2.858a2.535 2.535 0 0 1 1.875-.58Z"/>
</svg>
