<svg xmlns="http://www.w3.org/2000/svg" width="38" height="87" fill="none" viewBox="0 0 38 87">
  <path fill="#76DECC" d="M37.264 0v26.352c-7.746 1.55-13.515 8.598-13.515 16.94 0 8.34 5.769 15.387 13.515 16.938v26.352V60.23c-7.746-1.55-13.515-8.598-13.515-16.939 0-8.34 5.769-15.389 13.515-16.94V0Z"/>
  <path fill="#76DECC" d="M.642 43.291c0 21.15 15.188 38.418 34.622 41.065V61.793c-7.882-2.34-13.515-9.82-13.515-18.502 0-8.681 5.633-16.163 13.515-18.502V2.226C15.83 4.873.642 22.14.642 43.29Z"/>
</svg>
