<svg xmlns="http://www.w3.org/2000/svg" width="85" height="45" fill="none" viewBox="0 0 85 45">
  <path fill="#BBC0D0" fill-rule="evenodd" d="m30.93 29.287-2.748-4.58-2.32-3.856-9.86 5.923 1.505 2.513H30.93Zm22.815 0h13.423L49.573 0l-9.85 5.922 14.022 23.365Zm-4.69 4.59a5.976 5.976 0 0 0-3.258-.967h-.03c-3.317.02-6.014 2.728-6.014 6.045 0 3.318 2.697 6.024 6.014 6.045h.03a5.97 5.97 0 0 0 3.257-.967v.631h2.778V29.288h-2.778v4.589Zm0 5.71c-.296 1.526-1.65 2.696-3.258 2.696h-.03a3.335 3.335 0 0 1-3.297-3.328 3.32 3.32 0 0 1 3.297-3.317h.03a3.33 3.33 0 0 1 3.257 2.686v1.262Zm13.045-5.71a5.947 5.947 0 0 0-3.256-.967h-.031c-3.318.02-6.014 2.728-6.014 6.045 0 3.318 2.697 6.024 6.014 6.045h.03c1.202 0 2.32-.356 3.257-.967v.631h2.779V33.215H62.1v.662Zm0 5.71c-.295 1.526-1.649 2.696-3.256 2.696h-.031a3.336 3.336 0 0 1-3.297-3.328 3.32 3.32 0 0 1 3.297-3.317h.03a3.33 3.33 0 0 1 3.257 2.686v1.262Zm12.66-1.385c-.102-.051-.245-.102-.408-.163-.62-.214-1.628-.478-3.032-.783-1.232-.276-1.852-.631-1.852-1.08 0-.315.111-.57.325-.752.285-.245.793-.367 1.526-.367.743 0 1.283.163 1.598.478.194.194.336.54.428 1.028h2.95c0-1.445-.59-2.483-1.75-3.113a1.153 1.153 0 0 0-.193-.102c-.804-.377-1.872-.57-3.205-.57-1.619 0-2.84.428-3.653 1.292-.651.692-.967 1.537-.967 2.534 0 1.242.61 2.137 1.852 2.718.468.223 1.608.539 3.42.926 1.21.264 1.82.641 1.82 1.12 0 .285-.121.529-.386.752-.336.285-.845.428-1.526.428-.906 0-1.547-.153-1.923-.448-.378-.285-.571-.702-.571-1.23H66.12c0 1.404.59 2.452 1.78 3.143.947.54 2.189.815 3.726.815 1.027 0 1.943-.174 2.727-.51.163-.07.305-.142.458-.223 1.21-.672 1.821-1.74 1.821-3.205 0-1.202-.621-2.098-1.872-2.688ZM18.3 33.877a6.007 6.007 0 0 0-3.266-.967h-.031C11.697 32.93 9 35.638 9 38.955c0 3.318 2.697 6.024 6.004 6.045h.03c1.201 0 2.32-.356 3.267-.967v.631h2.778V33.215h-2.778v.662Zm0 5.71a3.34 3.34 0 0 1-3.266 2.696h-.031a3.334 3.334 0 0 1-3.287-3.328 3.319 3.319 0 0 1 3.287-3.317h.03a3.331 3.331 0 0 1 3.267 2.686v1.262Zm17.34-7.582h3.023v-2.657H35.64v2.657Zm0 12.659h3.023V32.91H35.64v11.754Zm-4.16-10.787a6.007 6.007 0 0 0-3.267-.967h-.03c-3.318.02-6.015 2.728-6.015 6.045 0 3.318 2.697 6.024 6.014 6.045h.03c1.16 0 2.295-.336 3.268-.967v.631h2.778V29.288H31.48v4.589Zm0 5.71a3.34 3.34 0 0 1-3.267 2.696h-.03a3.336 3.336 0 0 1-3.298-3.328 3.32 3.32 0 0 1 3.297-3.317h.03a3.332 3.332 0 0 1 3.268 2.686v1.262Zm17.564-10.3-3.277-5.474-8.05-13.392-9.535 5.74-.325.192.325.54 7.45 12.394h13.412Z" clip-rule="evenodd"/>
</svg>
