<svg xmlns="http://www.w3.org/2000/svg" width="213" height="34" fill="none" viewBox="0 0 213 34">
  <path fill="#060714" d="M51.552 26V6.15h7.314l7.478 16.233h.924l-.543.49V6.15h4.187V26h-7.369L56.065 9.767h-.924l.544-.49V26h-4.133Zm24.045 0V6.15h4.46V26h-4.46Zm3.916-7.994v-3.698h7.668v3.698h-7.668Zm0-8.158V6.15h7.994v3.698h-7.994ZM95.221 26V9.495h4.46V26h-4.46Zm-5.574-15.961V6.15h15.635v3.889H89.647ZM114.25 26V6.15h6.145l4.541 11.149h.517l4.486-11.149h6.254V26h-4.405V9.06l.626.054-5.248 12.862h-4.242l-5.275-12.862.679-.054V26h-4.078Zm35.377 0v-4.405h-.734v-4.786c0-.761-.182-1.332-.544-1.713-.363-.38-.943-.57-1.741-.57-.398 0-.924.008-1.577.026a80.99 80.99 0 0 0-2.012.082c-.689.036-1.314.072-1.876.109v-3.671a67.66 67.66 0 0 1 1.468-.109 55.566 55.566 0 0 1 3.426-.109c1.523 0 2.801.218 3.834.653 1.052.435 1.849 1.097 2.393 1.985.544.87.816 1.994.816 3.372V26h-3.453Zm-4.759.38c-1.069 0-2.012-.19-2.828-.57-.797-.381-1.423-.925-1.876-1.632-.453-.725-.68-1.586-.68-2.583 0-1.088.281-1.976.843-2.665.562-.707 1.351-1.224 2.366-1.55 1.015-.344 2.184-.516 3.508-.516h3.181v2.42h-3.209c-.761 0-1.35.19-1.767.57-.399.363-.598.862-.598 1.496 0 .598.199 1.088.598 1.468.417.363 1.006.544 1.767.544.49 0 .925-.081 1.306-.244.398-.182.725-.48.979-.898.253-.417.398-.997.435-1.74l1.033 1.088c-.091 1.033-.345 1.903-.762 2.61a4.057 4.057 0 0 1-1.685 1.632c-.707.38-1.577.57-2.611.57Zm12.13-.38V11.099h3.453v6.39h-.081c0-2.103.444-3.725 1.332-4.867.906-1.142 2.212-1.713 3.916-1.713h.571v3.752h-1.088c-1.196 0-2.121.326-2.774.979-.652.634-.978 1.559-.978 2.773V26h-4.351Zm22.167 0-4.704-6.961h-2.094l6.064-7.94h4.568l-5.71 7.396.054-2.12L184.06 26h-4.895Zm-10.496 0V6.15h4.351V26h-4.351Zm23.834.517c-1.269 0-2.393-.218-3.371-.653-.961-.435-1.768-1.015-2.421-1.74a8.378 8.378 0 0 1-1.468-2.475 8.447 8.447 0 0 1-.489-2.828v-.544c0-.997.163-1.948.489-2.855a7.942 7.942 0 0 1 1.468-2.474 6.689 6.689 0 0 1 2.366-1.713c.961-.435 2.049-.653 3.263-.653 1.595 0 2.937.363 4.024 1.088a6.969 6.969 0 0 1 2.529 2.8c.58 1.143.87 2.394.87 3.753v1.469h-13.187v-2.475h10.55l-1.414 1.142c0-.888-.127-1.65-.381-2.284-.254-.634-.634-1.115-1.142-1.441-.489-.345-1.106-.517-1.849-.517-.761 0-1.405.172-1.93.517-.526.344-.925.852-1.197 1.523-.272.652-.408 1.459-.408 2.42 0 .888.127 1.667.381 2.338.254.653.652 1.16 1.196 1.523.544.362 1.251.544 2.121.544.798 0 1.45-.154 1.958-.463.508-.308.852-.688 1.033-1.142h3.997a6.27 6.27 0 0 1-1.278 2.665 6.479 6.479 0 0 1-2.392 1.822c-.961.435-2.067.653-3.318.653Zm17.141-.327c-1.505 0-2.72-.181-3.644-.544-.925-.38-1.604-1.006-2.039-1.876-.417-.888-.626-2.084-.626-3.589V7.075h4.052v13.27c0 .706.181 1.25.544 1.63.38.363.915.544 1.604.544h2.202v3.671h-2.093Zm-8.566-11.91V11.1h10.659v3.181h-10.659Z"/>
  <path fill="#76DECC" d="M0 30.6c5.633 0 10.2-4.567 10.2-10.2 0-5.633-4.567-10.2-10.2-10.2v7.14a3.06 3.06 0 0 1 0 6.12v7.14Z"/>
  <path fill="#EA6CBC" d="M34 13.6c-1.743-.552-3.6-.85-5.525-.85-10.093 0-18.275 8.182-18.275 18.275 0 1.013.082 2.007.24 2.975h11.356A7.31 7.31 0 0 1 34 26.238V13.6Z"/>
  <path fill="#2A27C9" d="M1.793 0C2.64 7.65 9.125 13.6 17 13.6c7.875 0 14.361-5.95 15.207-13.6H21.265a4.591 4.591 0 0 1-8.53 0H1.793Z"/>
</svg>
