<svg xmlns="http://www.w3.org/2000/svg" width="85" height="45" fill="none" viewBox="0 0 85 45">
  <path fill="#BBC0D0" fill-rule="evenodd" d="M33.028 37.774H31.96l-.657 5.584h-.246l-.822-5.584h-1.642l-.74 5.584h-.163l-.821-5.584H25.8L26.787 45h1.806l.821-5.666h.082l.74 5.666h1.888l.904-7.226ZM34.67 45h1.15v-2.71h2.299V45h1.15v-7.144h-1.15v2.71h-2.3v-2.71h-1.15V45Zm10.675-3.86c0-2.135-.985-3.449-2.792-3.449-1.971 0-2.792 1.314-2.792 3.45 0 1.97.657 3.859 2.792 3.859 2.053 0 2.792-1.889 2.792-3.86Zm.493 3.86h3.284v-1.642h-2.135v-5.584h-1.15V45Zm11.167-7.144H54.87L53.31 45h1.232l.246-1.314h2.3L57.333 45h1.15l-1.479-7.144Zm-1.396 1.56h.658l.575 3.12h-1.89l.657-3.12ZM25.31 45v-1.642h-2.382v-1.396h2.382v-.986h-2.382v-1.56h2.382v-1.642h-3.532v5.747l-1.97-5.747H18V45h1.15l-.082-5.666L21.12 45h4.189Zm24.306 0H52.9v-1.642h-2.135v-5.584h-1.149V45Zm13.303-1.479-2.053-5.747h-1.807V45h1.15l-.082-5.666L62.179 45h2.627c2.382 0 2.875-1.232 2.875-3.942-.083-2.216-.74-3.284-2.874-3.284h-1.971v3.284l.082 2.463Zm1.15-4.187h.82c1.233 0 1.807.41 1.807 2.053v-.083c0 1.643-.575 2.136-1.806 2.053h-.821v-4.023Zm-19.79 1.806c0 1.068-.083 2.3-1.725 2.3-1.642 0-1.807-1.232-1.807-2.3 0-.985.493-1.806 1.807-1.806s1.724.82 1.724 1.806ZM27.278 14.535c0-.493.329-.822.575-.575 2.956 2.956 13.878 11.004 13.796 18.065-.082.41-.41.657-.822.657-8.129-.575-14.78-3.777-13.549-18.147ZM52.571 1.97C50.271.739 47.891.165 45.016 0c-.575 0-.82.41-.903.903-.246 3.696-.164 5.749-.246 9.361-.083.575.328 1.315.985.493 3.038-2.956 4.763-4.598 7.8-7.554.494-.41.33-1.068-.081-1.232Zm-19.708 0C35.245.739 37.626.165 40.5 0c.575 0 .821.41.903.903.247 3.696.165 5.749.247 9.361.082.575-.329 1.315-1.068.493-3.038-2.956-4.763-4.598-7.718-7.554-.576-.41-.33-1.068 0-1.232Zm21.597 2.3c-5.749 5.501-10.84 9.196-10.593 19.05 0 .41.328.822.903.33 4.763-4.682 7.472-7.227 12.317-11.908.74-.74.904-1.396.658-2.546-.493-2.053-.903-2.956-2.136-4.598-.328-.328-.656-.493-1.15-.328Zm-23.403 0c5.748 5.501 10.84 9.196 10.593 19.05 0 .41-.329.822-.904.33-4.763-4.682-7.472-7.227-12.317-11.908-.74-.74-.903-1.396-.657-2.546.493-2.053.903-2.956 2.135-4.598.328-.328.657-.493 1.15-.328Zm27.262 10.264c0-.493-.246-.822-.575-.575-2.873 2.956-13.877 11.004-13.795 18.065.082.41.492.657.903.657 8.048-.575 14.699-3.777 13.467-18.147Z" clip-rule="evenodd"/>
</svg>
