<svg xmlns="http://www.w3.org/2000/svg" width="20" height="20" fill="none" viewBox="0 0 20 20">
  <path fill="#7780A1" d="M2 0a2 2 0 0 0-2 2v16a2 2 0 0 0 2 2h5.683a1.426 1.426 0 0 1-.073-.47v-1.65H6.412c-.653 0-1.233-.285-1.515-.813a4.209 4.209 0 0 1-.24-.601c-.171-.498-.36-1.05-.9-1.433-.23-.183-.055-.391.21-.363.488.14.894.48 1.275.984.38.505.559.619 1.269.619.344 0 .86-.02 1.344-.098.26-.67.711-1.288 1.262-1.58-3.176-.33-4.692-1.93-4.692-4.104 0-.935.394-1.84 1.062-2.603-.22-.757-.495-2.3.084-2.888 1.43 0 2.294.939 2.501 1.192a7.066 7.066 0 0 1 2.316-.387c.824 0 1.61.14 2.323.389C12.916 5.942 13.781 5 15.213 5c.582.589.303 2.138.081 2.894.665.76 1.056 1.663 1.056 2.597 0 2.172-1.514 3.771-4.685 4.104.873.461 1.51 1.758 1.51 2.734v2.202c0 .083-.019.397-.028.469H18a2 2 0 0 0 2-2V2a2 2 0 0 0-2-2H2Z"/>
</svg>
