<svg xmlns="http://www.w3.org/2000/svg" width="20" height="20" fill="none" viewBox="0 0 20 20">
  <path fill="#7780A1" fill-rule="evenodd" d="M18 0H2a2 2 0 0 0-2 2v16a2 2 0 0 0 2 2h16a2 2 0 0 0 2-2V2a2 2 0 0 0-2-2ZM4 4.564a1.566 1.566 0 1 0 3.131-.001A1.566 1.566 0 0 0 4 4.564ZM4.25 16h2.687V7.364H4.25V16ZM17 16h-2.685v-4.2c0-1.002-.018-2.29-1.396-2.29-1.398 0-1.613 1.09-1.613 2.217V16H8.622V7.364h2.577v1.18h.036c.36-.679 1.235-1.395 2.542-1.395 2.72 0 3.223 1.789 3.223 4.114V16Z" clip-rule="evenodd"/>
</svg>
