<svg xmlns="http://www.w3.org/2000/svg" width="200" height="20" fill="none" viewBox="0 0 200 20">
  <path fill="#7780A1" d="M18 0H2a2 2 0 0 0-2 2v16a2 2 0 0 0 2 2h8v-7.53H7V9.648h3V8.131C10 5.26 11.49 4 13.925 4c1.143 0 1.759.081 2.057.121l.018.002v2.7h-1.661C13.305 6.824 13 7.359 13 8.44v1.207h2.974l-.411 2.824H13V20h5a2 2 0 0 0 2-2V2a2 2 0 0 0-2-2Z"/>
  <path fill="#7780A1" fill-rule="evenodd" d="M63 0H47a2 2 0 0 0-2 2v16a2 2 0 0 0 2 2h16a2 2 0 0 0 2-2V2a2 2 0 0 0-2-2ZM49 4.564a1.566 1.566 0 1 0 3.131-.001A1.566 1.566 0 0 0 49 4.564ZM49.25 16h2.687V7.364H49.25V16ZM62 16h-2.685v-4.2c0-1.002-.018-2.29-1.396-2.29-1.398 0-1.613 1.09-1.613 2.217V16h-2.684V7.364h2.577v1.18h.036c.36-.679 1.235-1.395 2.542-1.395 2.72 0 3.223 1.789 3.223 4.114V16Z" clip-rule="evenodd"/>
  <path fill="#7780A1" d="M92 0a2 2 0 0 0-2 2v16a2 2 0 0 0 2 2h5.683a1.427 1.427 0 0 1-.073-.47v-1.65h-1.198c-.653 0-1.233-.285-1.515-.813-.094-.178-.165-.384-.24-.601-.171-.498-.36-1.05-.9-1.433-.23-.183-.055-.391.21-.363.488.14.894.48 1.275.984.38.505.559.619 1.269.619.344 0 .86-.02 1.344-.098.26-.67.712-1.288 1.262-1.58-3.176-.33-4.692-1.93-4.692-4.104 0-.935.394-1.84 1.062-2.603-.22-.757-.495-2.3.084-2.888 1.43 0 2.294.939 2.501 1.192a7.065 7.065 0 0 1 2.316-.387c.824 0 1.609.14 2.323.389.205-.252 1.07-1.194 2.502-1.194.582.589.303 2.138.081 2.894.665.76 1.056 1.663 1.056 2.597 0 2.172-1.513 3.771-4.685 4.104.873.461 1.509 1.758 1.509 2.734v2.202c0 .083-.018.397-.027.469H108a2 2 0 0 0 2-2V2a2 2 0 0 0-2-2H92Z"/>
  <path fill="#7780A1" fill-rule="evenodd" d="M153 0h-16a2 2 0 0 0-2 2v16a2 2 0 0 0 2 2h16a2 2 0 0 0 2-2V2a2 2 0 0 0-2-2Zm-2.65 6.24a5.886 5.886 0 0 0 1.65-.438 5.735 5.735 0 0 1-1.434 1.437c.006.12.008.24.008.36 0 3.67-2.888 7.901-8.171 7.901A8.335 8.335 0 0 1 138 14.253c.225.026.454.039.685.039a5.888 5.888 0 0 0 3.568-1.19c-1.257-.022-2.318-.825-2.683-1.928a3.014 3.014 0 0 0 1.297-.048c-1.315-.255-2.304-1.377-2.304-2.723v-.035c.387.208.83.333 1.301.347a2.752 2.752 0 0 1-1.278-2.31c0-.51.142-.987.389-1.397a8.249 8.249 0 0 0 5.92 2.901 2.69 2.69 0 0 1-.075-.632c0-1.533 1.286-2.777 2.872-2.777.826 0 1.573.337 2.097.877a5.89 5.89 0 0 0 1.824-.674 2.797 2.797 0 0 1-1.263 1.536ZM186 0h8a6 6 0 0 1 6 6v8a6 6 0 0 1-6 6h-8a6 6 0 0 1-6-6V6a6 6 0 0 1 6-6Zm10 3c.5 0 1 .5 1 1s-.5 1-1 1-1-.5-1-1 .5-1 1-1Zm-1 7c0-2.758-2.243-5-5-5s-5 2.242-5 5 2.243 5 5 5 5-2.242 5-5Zm-5-3a3 3 0 1 0 0 6 3 3 0 0 0 0-6Z" clip-rule="evenodd"/>
</svg>
